<svg xmlns="http://www.w3.org/2000/svg" xml:space="preserve" id="Layer_1" x="0" y="0" style="enable-background:new 0 0 404 404" viewBox="0 0 404 404"><style>.st0{fill:#23622c}</style><g id="_x23_010101ff"><path d="M308.1 33c3.8-1.9 9.7-1.1 11.1 3.5 4 13.5 4.9 27.5 7.4 41.3 3 35.7 2.5 72-5.4 107-2.4 9.5-4.4 19.2-8.3 28.2-4.2-.8-8.3-1.7-12.4-2.9 1.7-7.3 4.5-14.3 6.2-21.6 4.1-16.6 6.6-33.6 8-50.7 0-11.1 1.2-22.3.1-33.4-1.4 3.8-2.3 7.8-3.2 11.7-8.1 32.2-22.1 62.9-40.5 90.4-.7 1.3-1.8 2.1-3.3 2.3-5.4 1-10.9 1.4-16.3 2.4 1.4-2.7 4.5-5.3 3.2-8.6-5.6-16.4-22.2-28.2-39.5-28.1-12.6-.4-25 5.5-33.2 15-4.4 4.9-6.2 11.5-10.6 16.4-1.5 1.5-.2 3.6 0 5.3 1.5 4.9.3 10.2 1.3 15.2 1.8 7.9 5.9 15 11.4 20.9-3.9 4.6-8 9-11.7 13.7-7.7-5.7-16.9-10-26.6-9.4-21.8-.6-41 20.1-39.2 41.8.6 7.6 2.4 18 10.9 20.3 12.1-4.6 23.3-11.5 35-16.9-1.6 5.9-2.8 11.9-5 17.6-14.6 8.7-30.7 14.6-46 22-21.4 9.2-41.6 20.8-62.3 31.4 3.6 1.2 7.4.3 11.1-.1 32.1-2.3 63.9-7.8 94.7-17.2 1 4.5 1.5 9 1.9 13.5-27.7 9.3-56.9 13.6-85.9 16.6-11.6.7-23.1 2.4-34.7 2-6.1-.3-12.3 1.1-18.2-.2-4.4-1.2-4.2-6.6-2.9-10 3.1-3.1 7.4-4.4 10.6-7.4 8.2-7.6 16.6-15.2 23.6-23.9 3.7-4.5 5.5-10.1 7.8-15.3 18.7-45.1 38.9-90.2 68-129.8 31-41.7 69.2-77.9 111.1-108.5 16.2-12 33.3-22.7 51.1-32.3 11.6-5.3 19.1-16.7 30.7-22.2M288 64.6c-34.6 18.1-66.2 41.6-95.5 67.4-23.4 20.7-44.8 43.7-63.8 68.5-19.2 25.3-34.4 53.3-47.8 82-3.2 7-6.9 13.8-9 21.2 7.4-.8 14.8-1.2 22.2-.2-1.4-9-1.9-18.4 1-27.2 4.5-16.2 17.4-29.8 33.2-35.3 10.9-4.2 23-3.5 34.2-1.1-6-16.1-6-35.1 2.9-50.2 8-14.6 22.9-25 39.3-27.8 9-2.2 18.2-.3 27.2 1.4-2.5-10.7-3.2-22.1.6-32.6 4-11.8 12-22.2 22.7-28.6 13.8-8.8 31.8-9.8 47-4.4 3.2-15.9 5.6-32.2 4.9-48.5-6.6 5-11.8 11.6-19.1 15.4M258.7 116c-10.9 8.4-16.9 22.5-15.2 36.2 1.5 14.4 11.8 27.5 25.4 32.3 13.8-22.8 24-47.8 30.4-73.6-13.2-6.1-29.4-3.7-40.6 5.1M64.2 322.1c-4.2 6.7-6.3 14.6-9.6 21.8 10.5-5 20.7-10.6 31.2-15.5 5.2-2.6 10.9-4.4 15.7-7.8-11.5-5.8-26.4-5.4-37.3 1.5zM322.1 259c9.9-12.2 19.9-24.4 30.5-36-4.6 17.2-11.6 33.5-17.9 50.1-10.2 26-20.9 51.7-32 77.3-3.8 8.2-7.7 18.2-17.2 21-10.8 2.6-23-4-27.3-14.2-3-8.3 1.4-16.8 6.3-23.4 18.5-25.5 37.9-50.3 57.6-74.8z" class="st0"/><path d="M226.3 237.9c20.1-10.9 43.5-15.4 66.2-13.2 5.4.5 10.7 1.5 16.1 2.2-4.5 5.2-8.7 10.6-13.1 15.9-14.4-1.4-29.1-.9-42.9 3.4-20.8 6.6-39.4 20-51.7 38.1-16.2 22.4-23 51-20.5 78.4 1 4.9-2.6 10.2-7.7 10.6-6 .8-10.6-5-10.5-10.6-1.9-27.3 4.3-55.2 17.6-79.1 11-19 27.2-35 46.5-45.7zm143.6 28.7c6.8 7.5 12 16.3 16.2 25.5 9.9 19.4 13.9 41.3 13.8 63-.6 5.3.1 11.3-3.2 15.9-4.3 5.1-14.4 2.7-15-4.3-.4-7.7.4-15.5 0-23.2-1.1-16.3-5.4-32.4-12.9-46.9-1.8-3.6-4.9-6.8-5.6-10.8 2-6.5 5.3-12.5 6.7-19.2z" class="st0"/></g></svg>