<svg xmlns="http://www.w3.org/2000/svg" xml:space="preserve" id="Layer_1" x="0" y="0" style="enable-background:new 0 0 431 431" viewBox="0 0 431 431"><style>.st0{fill:#23622c}</style><g id="_x23_000000ff"><path d="M161.9 11.4c12.6-1.9 25.5-1.9 38 0 33.8 3.6 66.4 18 92 40.4 33.9 29.1 55.6 72 58.3 116.7.7 7.9.3 15.9 0 23.8-.3 3.1-.7 6.2-.8 9.3-2.8 20.2-8.7 40.2-18.5 58.1-2.6 5.3-6 10.1-8.9 15.2 30.4 28.2 61.4 55.8 91.8 84 9.2 8.2 14.2 21 12.5 33.3-1 10.2-6.7 19.6-14.7 25.8-11.6 9.2-28.8 10.6-41.7 3.3-6.6-3.4-11.3-9.3-16.3-14.5-26-28.5-51.9-57-78-85.4-12 7.6-24.6 14.5-38.2 19.1-31.8 11.2-66.9 12.7-99.5 4.3-22.4-5.9-43.5-16.3-61.7-30.6-25.5-20-45.2-47.2-55.8-77.8-8.1-23.3-11.1-48.5-8.6-73 2.8-29.4 13.6-57.9 30.8-81.8C62.9 53.1 92 31 125.1 19.7c11.9-4.2 24.3-6.9 36.8-8.3m-51 33.6c-28.2 14.7-51.6 38.3-66 66.6-19.2 37.8-21.4 83.6-6.2 123.2 7.1 18.3 17.6 35.3 31.2 49.5 13.6 14.7 30.3 26.5 48.5 34.8 27.4 12.3 58.5 16.1 88.1 11.1 8.1-1.3 16.2-3.4 24-6.1 6.8-2.1 13.2-5.3 19.6-8.2 6.4-3.5 12.8-7.1 18.7-11.4 6.8-4.6 12.9-10 18.8-15.7l.2-.4c.3-.3.9-.8 1.2-1.1 2.8-3.1 5.6-6.1 8.5-9.1 7.6-9.6 14.7-19.6 19.9-30.7 2.8-5.7 5.3-11.6 7.3-17.6 4.8-13.7 7.5-28.1 8-42.6 2.5-43.8-15.5-88.2-47.8-117.9-8.4-8-17.8-15-27.9-20.8-7-4.1-14.3-7.5-21.9-10.5-1.2-.4-2.5-.8-3.7-1.3C192.3 22.9 147.7 26 110.9 45m178.9 265.6c2.3 2.5 4.6 5 7 7.5 7.5-7.1 14.8-14.4 21.9-21.9-2.4-2.4-5-4.7-7.5-6.9-6.8 7.5-13.9 14.6-21.4 21.3m20.1 19.6c-1.6 1-.1 2.4.7 3.3 6.6 7 12.8 14.2 19.4 21.2.2.3.7.8 1 1.1 14 15.3 28 30.7 42 46.1 5.1 5.3 12.9 7.7 20 5.9 8.5-1.9 15.5-9.8 15.8-18.7.7-6.5-2.2-12.9-7-17.2-3.1-2.8-6.1-5.7-9.1-8.5-12-10.9-24.1-21.7-35.8-32.8l-.5-.1c-.3-.3-.8-.9-1.1-1.1-7.8-7.1-15.3-14.4-23.5-21.1-7.5 7.2-14.7 14.6-21.9 21.9z" class="st0"/><path d="M123.4 55.3c27.3-12.6 58.8-16 88.1-9.1 6 1.3 11.8 3.2 17.6 5.3 5.4 1.8 10.5 4.6 15.7 7 17.9 9.6 33.8 23.1 45.9 39.4 17.2 22.6 26.7 50.7 27.5 79 .4 21.4-4 43.1-13.3 62.4-8.4 18.3-21.5 34.1-36.7 47.2-9.4 7.2-19.2 14-30 18.7-26.8 12.6-57.8 15.9-86.7 9.5-5.7-1.4-11.4-2.8-16.9-4.9-2.8-1-5.5-2-8.2-3.2-11.4-4.8-21.9-11.6-31.8-19-4.3-4.1-8.8-7.9-13.1-12l-.1-.5c-8.9-8.8-16-19.2-22-30-15.3-29.3-20.3-64-12.4-96.1 9.1-40.8 38.4-76.4 76.4-93.7m24.8 9.5c-3.4.9-6.7 2.2-10 3.3-26.5 10-49 29.8-62.7 54.5-1.3 2.5-2.6 5-3.7 7.6-1.5 3.4-3.1 6.7-4.1 10.3-11 31-8.3 66.3 6.8 95.5 5.1 9.1 10.9 17.9 18.1 25.4 20.5 22.6 50.1 36.6 80.5 38.3 11.8.3 23.7.1 35.2-3 21.4-4.8 41.2-15.9 56.7-31.3.3-.2.8-.8 1-1 15.4-15.6 26.4-35.4 31.3-56.8 1.5-6.4 2.6-13 2.9-19.6-.1-8.3.6-16.7-.9-24.9-1-7.1-2.6-14-4.9-20.8-5.2-15.9-13.9-30.7-25.3-43.1-2.2-2.6-4.6-5.1-7.3-7.3-7.5-7.3-16.3-13-25.4-18.2-1.2-.5-2.4-1.1-3.5-1.6-7.8-3.8-16-6.7-24.4-8.7-19.7-4.4-40.6-4-60.3 1.4z" class="st0"/><path d="M206.4 87c5.5-2.7 11.4-4.3 17.6-4.6 7.2.3 14.6 2 20.2 6.8 8.4 6.9 12.9 17.8 13.3 28.6-.4 16.7-10.3 32.5-24.5 41.1-9.5 5.8-20.7 8.4-31.7 9-15.9.5-31.5-8-40.1-21.3-6.5-11.1-7.6-25.3-2.7-37.2 3-6.5 8.4-11.3 14.8-14.4 6.8-3 14.3-4 21.6-4 4-.7 7.8-2.3 11.5-4m12.1 9c-7.5 2.3-14.3 7.1-22.3 7.6-8 .3-17 1-23.1 6.8-5.5 5.6-5.3 14.1-4.2 21.3 1.3 7.6 6.8 13.5 12.8 17.8 4.8 3.3 10.5 5.3 16.4 5.3 12.9.5 26.4-3.5 35.8-12.7 7.6-7.6 12.4-18.8 10.1-29.7-1.5-5.6-4.2-11.5-9.5-14.5-4.8-2.9-10.7-3.1-16-1.9z" class="st0"/><path d="M212.2 107.4c5.3-1.3 9.8 5.9 6.2 10.1-6.2 6.4-15.6 9.1-24.3 8.3-2.6.2-5.2-1.4-6.3-3.8-1.9-3.4.6-7.9 4.1-8.8 3.7-.2 7.7.5 11.2-1 3.4-1 5.8-3.7 9.1-4.8zm-107.5 27.7c9.9-1.5 19.7 3.2 26.8 9.8 4.6 4.1 7.7 9.8 13.1 12.8 3.9 2.3 8.1 4.2 11.7 6.9 6.2 4.5 10.5 11.1 12.9 18.2 3 10.9-.8 22.6-8 31-6 7.4-15 11.7-24.2 13.7-12.3 2.3-25.5.3-36.4-6.1-12.2-7.3-22.9-18.2-27.3-32-2.7-11.1-2.5-23.5 3.1-33.7 6.2-10.3 16.4-18.5 28.3-20.6M88.9 160c-5.2 7.7-5.4 17.8-3.1 26.5 4.4 11.2 13.8 19.8 24.2 25.3 9.9 4.5 21.7 5.4 31.8.8 7.2-2.9 12.5-9.3 15-16.5 1.3-5.3.6-11.3-2.8-15.7-5.7-8.8-17.5-10.3-24-18.4-5.5-6.6-12-13.8-21.1-14.6-8.2.6-15.2 6.1-20 12.6z" class="st0"/><path d="M114.8 163h1.8c5.1 1.6 6.2 7.6 10.8 10 3.2 2.6 8.4 2.1 10.4 6.1 2.4 4.2-1.5 9.9-6.2 9.4-7.8-1.5-14.9-6.2-19.6-12.6-1.5-2.1-3.2-4.6-2.6-7.4.3-2.9 3.1-4.5 5.4-5.5zm105.1 15.6c4.1-.5 8.3-.5 12.4 0 10.3 2.6 19.9 9.1 25.2 18.4 8 13.9 8.2 31.5 1.6 46-7.9 16.4-22.7 30.7-41.2 33.6-9.6.7-19.9-.1-28.2-5.5-9.5-6-17-15.7-19.1-26.8-1.8-10.6 3.4-20.9 10.7-28.3 4-4.2 9.2-7.5 12-12.7 2.4-4.1 4.4-8.5 7.4-12.3 4.9-6 11.8-10.3 19.2-12.4m-4.7 16.2c-8.3 5.8-9.8 16.9-17.3 23.4-5.3 4.4-10.7 9-13.5 15.4-.4 1-.8 2.1-1.2 3.1-.1 2.2-.1 4.4 0 6.5 3.5 10.1 12.1 19.3 23.2 20.3 8.6 1.8 17.8-.8 24.7-6 10.8-8.1 18.8-20.4 20-34 0-5.7-.8-11.4-3-16.6-3-7.7-10-13.5-18-15.6-5.1-1.4-10.6.4-14.9 3.5z" class="st0"/><path d="M212.5 212c1.4-1.5 3.4-1.9 5.3-2.6 3.2 1.3 6.7 3.8 5.9 7.7-1.5 7.9-6.5 15.1-13.1 19.8-1.9 1.5-4.2 2.1-6.4 2.6-1.7-1.1-3.9-1.9-4.7-3.8-1.6-2.6-.7-6.4 1.9-8 3.1-2.1 6.1-4.5 7.9-7.9 1.2-2.5 1.6-5.4 3.2-7.8z" class="st0"/></g></svg>