<svg xmlns="http://www.w3.org/2000/svg" xml:space="preserve" id="Layer_1" x="0" y="0" style="enable-background:new 0 0 431 431" viewBox="0 0 431 431"><style>.st0{fill:#4aa534}</style><g id="_x23_000000ff"><path d="M219.3 2.9h6.9c32.2 1 64.2 11.5 90.1 30.9 34.7 25.5 58.2 65.7 62.9 108.6 5.8 47.9-12.3 97.6-47 131.1 16.7 29.4 33.5 58.9 50.3 88.3 2 3.5 4 8.2 1.2 11.8-2.4 3.8-7.3 3.6-11.2 3.4-16.7-1.2-33.3-2.2-50-3.3-7.8 15.5-15.3 31.2-23.1 46.7-1.4 3.2-4.1 5.6-7.5 6.5h-1.4c-6.8-1.4-9-8.7-12.2-13.9-18.4-32.1-36.4-64.5-55.2-96.4-20.4 34.7-39.9 70-60.1 104.9-1.5 2.7-4.1 4.5-6.9 5.4h-1.6c-3.5-.8-6.3-3.2-7.7-6.5-7.8-15.5-15.4-31.2-23.1-46.7-16.5 1.1-33.1 2.1-49.6 3.3-4 .2-9 .5-11.5-3.3-2.9-3.6-1-8.3 1-11.8 16.8-29.4 33.6-58.9 50.3-88.4-13.1-13-24.3-28.1-32.3-44.8-15-30.7-19.4-66.4-12.5-99.8 7.7-39 31.2-74.5 63.7-97.2 25-18.1 55.6-27.8 86.5-28.8m-13.9 17.7c-32.3 3.9-63 19.7-85.1 43.5-22.3 23.6-36 55.3-37.8 87.7-2 31.7 7.2 63.9 25.7 89.7 17.4 24.6 42.9 43.4 71.7 52.6 31.8 10.3 67.2 8.7 98-4.4 35.3-14.8 63.9-44.8 77-80.7 10.3-27.7 11.5-58.6 3.5-87-10.1-36.1-35.3-67.5-68.2-85.3-25.6-14.2-55.7-19.7-84.8-16.1m-121.7 339c14.4-.8 28.8-2 43.2-2.7 4.2-.5 8 2 9.6 5.8 6.5 12.7 12.6 25.5 19 38.2 16.1-28.2 32.1-56.3 48.2-84.5-11.4-1.6-22.7-4.3-33.6-7.9-6.5 11-12 22.7-19.1 33.3-5 6.5-16.4.4-13.8-7.4 5-11.2 11.8-21.5 17.5-32.3-9.9-5.1-19.3-10.9-28.3-17.5-14.2 25-28.5 50-42.7 75M291.2 302c5.3 9.7 10.8 19.2 16.1 28.9 1.8 3 2.7 7 .4 10-2.9 4.8-10.8 4.8-13.6-.1-6.4-10.6-12.1-21.6-18.3-32.4-11 3.6-22.2 6.3-33.6 7.9 16.1 28.2 32.1 56.4 48.2 84.5 6.4-12.7 12.5-25.6 19-38.3 1.7-3.8 5.5-6.2 9.7-5.7 14.4.7 28.7 1.9 43.1 2.7-14.2-25-28.5-50.1-42.7-75.1-9 6.7-18.5 12.6-28.3 17.6z" class="st0"/><path d="M220.1 44.9c5.6-2.4 12.2 3.2 10.9 9.2-.9 5.8-8.5 8.8-13 5-5.2-3.5-3.8-12.4 2.1-14.2z" class="st0"/><path d="M187.1 50.1c5.7-2.7 12.5 3 11.2 9-.7 5.1-6.1 6.7-10.2 8.4-25 8.9-45.7 28.8-56.1 53.1-9.7 22.2-11 48.1-3.2 71.1 6.6 20.2 20.1 38 37.6 50.1 19.7 13.8 44.6 20 68.4 17 23.5-2.7 45.7-14.2 61.5-31.7 18.5-20.1 28.2-48.1 25.4-75.3-2.5-35.6-26.3-68.7-59.2-82.4-4.2-1.8-8.7-3-12.4-5.7-4.1-3.6-3-10.8 1.7-13.2 4.2-2.4 8.8.4 12.8 1.9 34.1 12.6 60.9 42.7 70.1 77.9 5.6 20.6 5.5 42.8-.7 63.3-8.4 28.6-28.6 53.4-54.6 67.9-22.9 12.9-50.4 17.5-76.3 12.9-21.4-3.7-41.6-13.6-57.7-28.2-18.9-16.9-31.9-40.2-36.3-65.2-4.6-24.9-.5-51.3 11.2-73.8 13.5-27 38.3-47.7 66.8-57.1z" class="st0"/><path d="M215 97.7c1.6-3.6 5.7-6.6 9.8-5.3 3.8.7 5.6 4.4 7.2 7.5 4.9 9.9 9.8 19.9 14.7 29.8 11.7 1.8 23.5 3.3 35.2 5.1 3.8.5 7.7 3.1 8 7.2.8 3.8-2.1 6.9-4.5 9.3-8 7.8-16.1 15.6-24.1 23.5 1.9 11.8 4.2 23.5 6 35.3.8 3.9-.9 8.5-4.9 9.9-3.3 1.6-6.8-.1-9.7-1.6-9.9-5.2-19.8-10.5-29.8-15.7-11.1 5.6-21.9 11.9-33.2 17.2-5.4 2.8-12.3-2.4-11.3-8.3 1.5-12.3 4.2-24.5 6.1-36.8-8-7.8-16-15.7-24-23.4-2.4-2.5-5.4-5.6-4.5-9.4.3-4.1 4.3-6.8 8.1-7.2 11.7-1.8 23.4-3.4 35.1-5.1 5.3-10.6 10.4-21.4 15.8-32m-3.8 44.3c-1.8 2.8-5.3 3.4-8.3 3.9-7.1 1-14.1 2-21.2 3.1 5.5 5.5 11.1 10.7 16.6 16.2 2.2 2.1 3.8 5.1 3.1 8.2-1 8-2.7 16-4 24 7.4-3.7 14.4-7.9 21.9-11.3 2.7-1.5 5.9-.8 8.5.6 6.9 3.4 13.6 7.2 20.5 10.7-1.2-8-2.9-15.9-3.9-24-.7-3.2.9-6.2 3.2-8.3 5.4-5.5 11.1-10.7 16.5-16.2-8.1-1.3-16.4-2.1-24.5-3.7-3.5-.5-5.5-3.5-7-6.4-3.2-6.3-6.3-12.7-9.3-19.1-5.2 6.7-7.3 15.2-12.1 22.3z" class="st0"/></g></svg>