<svg xmlns="http://www.w3.org/2000/svg" xml:space="preserve" id="Layer_1" x="0" y="0" style="enable-background:new 0 0 431 431" viewBox="0 0 431 431"><style>.st0{fill:#23622c}</style><path id="_x23_f6f6f6ff" d="M157.5 225c1.5.8 4.3 2.5 5.8 3.3-3.9 6.3-7.8 12.5-11.6 18.9-2-1.2-4-2.4-5.9-3.6 4-6.1 8-12.3 11.7-18.6z" class="st0"/><path id="_x23_000000ff" d="M241.9 10.9c2.7-3.9 8.9-2.5 12.3-.2 18.7 10.3 37.5 20.7 56.2 31.1 5.9 2 6.3 9 2.9 13.2-4.6 7.3-8.5 15.1-14.4 21.5-6 3.1-11.5-1.7-16.5-4.3-4.8 7-9.2 14.1-13.7 21.2 3.1 1.9 6 3.9 8.8 6.1 2.5 6.4-3.3 11.5-6 16.8 15.1 10.6 34.3 17.8 43.6 34.1 9.1 15.3 8.7 33.4 9.1 50.3 1.8 58.3 4.8 116.5 6.3 174.8 14.5 1 31.6-3.5 43.8 6.3 10.8 7.9 11.6 21.9 10.4 33.7-.2 4.1-4.5 7.3-8.9 6.8-103.8.1-207.6 0-311.4.1-3.5-.1-8.4.1-10.1-3.5-5.6-16.3 1.2-39.3 21.5-42.8 16.5-1.4 33.1-.1 49.6-.6 9.3-15.3 19-30.4 28.4-45.6-3.1-1.7-6.1-3.3-9.1-5-3.1 5.1-5.9 10.5-10 15.1-5 4.1-10.7-.3-15.2-2.5-18.6-10.7-38-20.3-56.1-31.6-6.7-7.3 4.1-15.3 7-21.9-7-5.1-19.9-7-20.8-16.8 4.4-9 9.8-17.6 15.8-25.7 4.1-4.3 10.2-1.5 14.3 1 34.2 18.9 68.5 37.6 102.5 56.7 6.7 2.9 4.9 10.2 2 15 4.7 2.7 9.4 5.4 13.9 8.2 13.1-19.6 25.1-39.8 37.7-59.7 6.4-9.2 3.7-22.7-5.9-29-7.5-5-15.7-8.8-23.5-13.4-5.3 7.9-9.3 16.7-15.8 23.8-6.7 3.4-12.8-2.9-18.4-5.4-6.3 9.5-11.1 19.9-18.7 28.5-1.4.3-4.2.8-5.6 1.1-9.8-4.1-20.1-8.9-27.8-16 .2-12.3 11.8-21.7 17-32.6-6.3-3.5-18.5-9-11.7-17.4 27.7-44.4 55.3-88.8 83.3-133 3.7-6.4 11.9-2.5 16.7.3 4.3-7.1 8.7-14.1 13.3-21.1-4.8-3.4-13.1-5.8-12-12.9 4.3-8.6 9.4-16.9 15.2-24.7m8.6 16.5c-1.3 2.3-2.5 4.6-3.7 6.9 15.2 7.6 29.3 17.2 44.8 23.9 1-1.5 3.1-4.4 4.2-5.9-15.1-8.3-30.1-16.8-45.3-24.9m2.8 28.8c-4.5 7.1-9 14.3-13.4 21.4 4.6 2.6 9.2 5.3 13.7 7.9 4.8-7 9.3-14.3 14-21.4-4.8-2.5-9.6-5.2-14.3-7.9M143.6 204.4c13 7.4 26.3 14.4 39.3 21.9 7.5-12 15-24 22.3-36-9.5-9.2-14.3-23.8-8.8-36 5.8-17.1 27-26.7 45.1-21.8 5.5-8.8 11.3-17.5 16.3-26.6-13.3-6.8-26.3-14.2-39.3-21.5-24.8 40.1-50 80-74.9 120m112.7-64.1c13 12.1 15.5 33 3.6 46.6-9.1 11.8-26 15.4-40.6 12-1 1.9-3.1 5.8-4.2 7.8 13.5 8.2 31 13.9 37.4 29 7.5 13.9 2.5 30.1-6.5 42.2-13.6 20.5-25.1 42.4-39.9 62-11.6 3-21-8.2-31-12.3-10.1 16-19.9 32.1-30.2 48 56.3.1 112.6.1 169 0-2.5-64-5-128-7.1-192-.8-11.8-3.1-24.8-13-33-9.7-7.7-20.6-13.8-31.1-20.4-2.2 3.3-4.3 6.7-6.4 10.1m-33.7 8.8c-13.9 5.2-15.2 25.5-2 32.2 11.2 7.3 28.2-.1 30-12.6 3.1-14-14.7-26.6-28-19.6m-71 78.4c-3.8 6.3-7.7 12.5-11.8 18.7 2 1.2 4 2.3 5.9 3.6 3.8-6.4 7.7-12.6 11.6-18.9-1.4-1-4.2-2.6-5.7-3.4m-78.1 39.7c29.5 16.4 59.3 32.4 88.5 49.1 1.6-2.4 3.2-4.8 4.8-7.3-31.1-16.9-61.8-34.2-92.9-51.1-1.3 2.9-6.1 7.7-.4 9.3m10.9 24.9c-.7 1.5-2.3 4.5-3 6.1 15.2 7.9 30.1 16.4 45.1 24.8.9-1.5 2.5-4.6 3.4-6.1-15.4-8.1-30.1-17.1-45.5-24.8M69.5 406.3h299c-.4-7.1-4.7-15.8-13.8-14.5-90.6-.1-181.3-.2-271.9 0-9-1.1-13.2 7.5-13.3 14.5z" class="st0"/></svg>