<svg xmlns="http://www.w3.org/2000/svg" xml:space="preserve" id="Layer_1" x="0" y="0" style="enable-background:new 0 0 980 980" viewBox="0 0 980 980"><style>.st0{fill:#23622c}</style><g id="_x23_00c553ff"><path d="M409.3 70.7c1.1-.6 2.2-1.3 3.5-1.1 12.8.1 25.6-.1 38.4.1l.8 1.2c45.6 1.9 90.7 12.1 133.1 28.9 11.7 4.6 23.3 9.8 34.5 15.6 4.2 1.9 8.2 4.3 12.3 6.4 2.5 1.4 5 2.7 7.4 4.3 3.7 1.8 7.1 4.2 10.7 6.2.7.7 1.5 1.3 2.4 1.6 4.6 2.9 9.3 5.8 13.8 9 6.9 4.5 13.4 9.6 20.1 14.4.7.6 1.3 1.3 2 1.9 3.5 1.7 6.1 4.9 9.2 7.1 1.6 1.2 3.1 2.6 4.5 4 3.1 1.8 5.3 4.7 8.2 6.7 8 7.8 16.7 14.9 23.9 23.4 1.3 1.2 2.5 2.6 3.7 4 4.4 4.5 8.7 9.1 12.5 14.1 1.6 1.5 3.2 3.2 4.3 5.1 1.3 1.9 4 3.3 4 5.8l.7-.7c.8 1.2 1.5 2.4 2.2 3.7l.5-.1c4.6 6.3 9.2 12.5 13.8 18.8 2.7 4.5 6 8.5 8.5 13 .9 1.3 1.8 2.7 2.7 4.1 29.1 46.4 48.7 98.6 57.9 152.5 3 17.1 4 34.5 5.2 51.9-1.1.8-2.1 1.7-3.3 2.4-6.5 1-13.1 1.2-19.6 1.8-4.7-.2-10.3-.6-13.4-4.6-3-3.8-3.6-8.8-4.7-13.4-2.4-15-4.2-30.2-7.6-45-4.9-23.9-12.5-47.1-21.4-69.7-3.3-6.7-5.8-13.8-9.3-20.4-4.1-8.1-7.9-16.5-13-24.1l.3-.7c-1.5-1.1-2.2-2.9-3-4.5-1-1.4-1.9-2.8-2.6-4.4-1.5-1.9-2.6-4-4.1-5.8 0-.2.1-.6.2-.8-2.5-2.9-4.2-6.3-6.6-9.3-5.8-8.7-12.3-16.8-18.6-25.2-1.8-2.2-3.9-4.2-5.6-6.5-1.5-2.1-3.8-3.5-4.8-5.9-2.7-2.8-5.5-5.5-8.2-8.3-.1-.4-.2-1.1-.3-1.5-1.7 3.3-.2-1.3-2.1-1.5-.6-.6-1.1-1.2-1.7-1.7-2.3-2.7-5-4.9-7.5-7.4h-.7l.1-1.1-1.2.4.5-1.2-1.4.4.8-1.1c-1.4.4-2.1-.9-3-1.6-1.9-1.9-3.7-3.9-5.8-5.6-.2-.3-.5-.9-.7-1.2-1.9-.3-3-2-4.3-3.2-1.8-1.9-4.2-3.2-6-5.1-13.4-11-27.8-21-42.5-30.3-3.8-2-7.4-4.4-11.1-6.5-.9-.5-1.8-.9-2.7-1.4-1.5-.8-3-1.7-4.5-2.6-27.2-14.4-55.9-25.8-85.7-33.5-31.3-8.1-63.5-12.9-95.8-12.6-54.9-.5-109.6 12.6-159.3 35.8-3.4 1.8-6.9 3.4-10.4 5.1-1.9 1.2-4.2 1.9-5.9 3.5l-.8-.6c-.2.3-.7 1-1 1.3-4.1 2.1-8.3 4.1-12 6.9l-1.3-.7.3 1.2c-5.7 2.8-10.7 6.8-16.4 9.9-1.6 1.3-3.3 2.4-5.1 3.4-.8.9-1.8 1.5-3 1.7l.3.4c-2.1 1.1-3.8 2.8-5.9 3.9-6.3 4.9-12.8 9.5-18.8 14.7-6.9 5.4-13.3 11.3-19.7 17.2-4.6 4.2-9.1 8.7-13.6 13.2-3.8 5-8.8 9-12.5 14-4.2 4.2-7.4 9.2-11.5 13.4-3.9 5-7.4 10.3-11.5 15.1-3.3 5.6-7.6 10.6-10.7 16.3l-.7-.5c0 3-2.7 5-4 7.5-16.6 27.5-30.1 56.9-39.4 87.6-17.3 57.7-20.7 119.6-9.8 178.9 10.6 58.2 35.1 113.7 70.8 160.9 2.6 3.1 4.8 6.6 7.6 9.6.8.9 1.7 1.7 1.7 3l.5-.5c3.2 4.6 7.2 8.5 10.8 12.8 3.2 4 7.4 7.1 10.3 11.3 1 .2 1.6.8 1.6 1.7 1.6.7 2.9 2.1 3.6 3.7l1-.3-.4.9c5.1 3.1 8.4 8.4 13.2 12.1 2.9 1.8 5 4.7 7.8 6.6 2.6 2.4 5.8 4.3 8.2 7 1.8.9 3.2 2.2 4.7 3.5 2.2 1.7 4.3 3.3 6.7 4.8l-.2.6c1.2 0 2 .9 3 1.5 6.8 5.2 14.2 9.6 21.2 14.6 3.2 1.2 5.7 3.5 8.8 5.1 2.1 1.1 4 2.3 6 3.6 2.8 1.1 5.2 2.8 7.8 4.3 44.4 23.6 93.6 38.2 143.7 42.6 12 1.3 24.1 1.9 36.1 1.8 48.1.9 96.4-8.2 140.8-26.6 8.3-3.3 16.3-7.3 24.4-11 4.2-2.6 8.7-4.5 13-6.8 2-1.1 3.9-2.6 6-3.4 2-1.2 3.9-2.6 6.1-3.5 4.2-2.7 8.5-5.2 12.6-8 3.1-1.7 5.7-4.2 8.8-5.8.9-.6 1.6-1.9 2.9-1.5l-.4-.6c1.8-1.1 3.5-2.2 5.2-3.4 1.4-1 2.8-2.1 4.2-3.1 3.8-2.9 7.6-5.8 11.4-8.5l-.2-.4c1.8-1.2 3.8-2.1 5.2-3.7 1.1-1 2-2.7 3.8-2.6l-.6-.5c2.2-.9 3.2-3.7 5.8-3.7l-.7-.6c2.6-1.5 4.5-3.9 7-5.7 4-3.4 7.6-7.4 11.7-10.7 1-.9 2-1.9 2.9-3 .8 0 1.7.1 2.5.1 2.3 4.4 5.1 8.4 7.6 12.7 2 3.5 4.9 6.6 6.6 10.3 2.5 3.8 5.8 8.3 4.1 13.1-1.1 1.4-2.1 2.8-3.2 4.1-.9.2-1.8.7-2.2 1.6-6 5.5-12.8 10.1-19.1 15.4-9.5 7.8-19.2 15.4-29.5 22.1-3.2 2.5-6.6 4.8-10.2 6.8-.8.9-1.8 1.5-3 1.6-.5.4-.9.9-1.3 1.4-4.7 2.6-9.1 5.7-13.8 8.2-5.2 3-10.3 6.3-15.8 8.5v.9c-.4-.1-1.2-.4-1.6-.5l-.1.9c-4.8 2.3-9.6 4.8-14.5 7-47.6 22.6-99.6 35.9-152.1 38.9-.2.3-.5.9-.7 1.2h-44.4c-1 .1-1.7-.3-2.3-1.1-31.1-1.4-62.1-6.8-92.1-15.3-20.9-5.9-41.3-13.3-60.9-22.4-1.2-.5-2.4-1-3.5-1.6-16.8-7.7-33.1-16.7-48.6-26.7C145 807.5 96.4 756.1 63.2 696c-1.5-3.4-4.1-6.3-5-9.9h-.5c-1.9-4.7-5-8.9-6.4-13.8h-.5c-.4-1.1-.8-2.1-1.2-3.2-2.5-5.1-4.7-10.3-6.9-15.5-.6-1.4-1.2-2.8-1.8-4.3-1.4-3.7-3-7.4-4.3-11.1-1.3-3.1-2.3-6.3-3.5-9.5-12.8-37.1-20.9-76.1-23.1-115.5-.6-1.2-1.2-2.3-1-3.6.1-14-.1-28 .1-42 2.1-3.1.7-7 1.5-10.4 2.4-29.6 7.8-59 16.6-87.4 2-7.8 5.1-15.2 7.3-22.9l.5-.1c.4-2.4 1.5-4.5 2.1-6.8l.5-.1c2.1-7.2 5.5-14 8.5-20.9 3.2-7.2 6.7-14.4 10.3-21.4 8.6-16.7 18.4-32.8 29.2-48.1 28-40 63.1-75.1 103.1-103.1 19.9-14.2 41.4-26.1 63.4-36.8.3 0 1 .1 1.3.1l.1-.8c4.6-1.6 8.8-3.9 13.3-5.6 7.3-3.2 14.8-5.9 22.2-8.6 4.3-1.6 8.6-3 13-4.3 1.7-.7 3.4-1.3 5.1-1.7 33.3-10.1 67.6-16.4 102.2-18z" class="st0"/><path d="M399.8 221.6c21.3.1 42.6 0 63.9 0v58.1c32.8 1.4 65.8 7.3 95.5 21.7-6.4 24.5-12.8 49.1-18.9 73.7-5.6-2.8-11.5-4.9-17.1-7.5-26.3-10.5-54.7-15.6-83-14.8-12.2.5-24.8 2.5-35.6 8.7-1.9 1.5-3.9 2.9-5.8 4.4-.7 1-1.5 1.9-2.6 2.5-7.8 9.3-10.2 23-5.1 34.1 1.9 3.9 4.7 7 7.7 10.1 1.8 1.2 3.3 2.8 4.8 4.4 1.2.6 2.4 1.4 3.6 2.2l-.2.6c2.1.1 3.5 1.8 5.3 2.8 23.4 13.7 49.3 22.2 74.4 32 3.3 1.5 6.8 2.6 9.8 4.5 14.4 6 28 14.2 40.4 23.7 1.8 1.6 3.7 3 5.3 4.7 4.3 3.3 8.1 7.4 11.5 11.6.8 1.1 2.6 1.9 2 3.5l.6-.4c3.1 4.3 6.2 8.5 8.7 13.2 0 .5.1 1.4.1 1.9l.7-.6c6.4 13.1 10.4 27.4 11.3 41.9 2.9 29.1-5.3 59.4-23.7 82.3-5.9 7.2-12.2 14.2-19.7 19.7-3.8 3.2-7.8 6.1-12 8.6-2 1.5-4.3 2.3-6.2 3.8-2 1-3.9 2.1-5.9 3-15.5 8-32.4 12.7-49.4 16 .2 22.3 0 44.7.1 67-21.3 0-42.6.1-63.9 0 0-20.9.1-41.8-.1-62.7-17-.5-34-3-50.6-6.4-21.3-4.6-42.3-11.2-61.4-21.8 2-5.5 3.1-11.3 4.6-17 5.1-19.7 10.1-39.5 15.2-59.2 33.8 18.8 72.5 29 111.2 28.9 12-.4 24.3-1.7 35.5-6.3 3-1.1 5.8-2.9 8.7-4.2 4.8-3.6 9.5-7.6 12.7-12.8 7.7-13.1 5.9-30.8-3.7-42.4-2.8-2.7-5.2-5.7-8.4-8-3.2-2.5-6.6-4.8-10-7-4.2-2.5-8.7-4.6-13-6.8-22.2-10-46-16-68-26.5-6.1-2.6-12.1-5.7-17.8-9.1-1.8-.9-3.5-1.9-5.1-3.1-1.1-.3-2.1-.9-2.8-1.8-5.2-2.7-9.7-6.7-14.7-9.9l.6-.6c-2 .2-2.9-1.9-4.3-2.9-7.6-5.9-14.1-13.2-19.5-21.1-1.2-1.6-2.3-3.3-3.3-5-.5-.9-1-1.7-1.5-2.6-8.7-15.1-12.3-32.6-12.4-49.8.3-13.6 2.3-27.3 7.5-39.9 2.3-5.5 4.4-11.1 7.9-15.9 1.3-3 3.2-5.6 5.3-8 .6-1.1 1.3-2.3 2-3.3l.5.3c.9-2.1 2.7-3.5 3.9-5.3l.3.1c1.3-2.2 3.3-3.8 5-5.6 1.2-1.2 2.3-2.7 4-3.2l-.2-.4c2.3-1.2 3.6-3.5 5.8-4.8 5.2-4 10.6-8 16.4-11.1 7.9-5 16.6-8.4 25.3-11.7 9-3.4 18.3-5.6 27.6-7.6.3-21.1.3-42 .2-62.9zm367.8 289.6h120.8c0 48.1-.1 96.3 0 144.4 28 .1 56.1 0 84.1.1-.7 2.2-2.8 3.6-3.5 5.7-1.5 2.6-3.1 5.1-4.6 7.7-.9 1.9-2.4 3.5-3.1 5.5-.1.1-.4.2-.6.3-2.2 4.5-5 8.8-7.6 13.1-2.6 4.2-4.8 8.7-7.7 12.7-3.7 7.1-8.2 13.8-12.1 20.8-9.4 16.2-19 32.4-28.6 48.5-2.3 3.6-4.1 7.5-6.6 10.9-3.3 6.4-7.3 12.5-11 18.7-.7 1.5-1.6 2.9-2.6 4.3-1.5 3.3-3.7 6.3-5.5 9.4-1.5 2.7-3.1 5.3-4.8 7.8-7.1 12.4-14.6 24.6-21.9 36.9-1 1.8-1.9 3.5-3 5.2-2.6 4.2-4.9 8.7-7.7 12.8-3.5 6.2-7.2 12.4-10.9 18.6-1.8-.1-3.5-.1-5.3-.1-2.3-3.5-4-7.3-6.3-10.8-1-1.7-2.1-3.3-3-5-.8-1.2-1.5-2.4-2.2-3.6-7.3-12.3-14.6-24.5-21.9-36.9-1-1.4-1.8-2.8-2.6-4.2-4.6-7.7-9.3-15.4-13.7-23.3-1-1.3-1.9-2.8-2.6-4.2-.7-1.2-1.5-2.3-2.1-3.5-2.9-4.8-5.7-9.7-8.8-14.4l.4-1.2-1 .2c-2-4.2-4.9-7.9-6.9-12.1-3.6-6-7.2-11.9-10.7-18-2.5-3.5-4.1-7.6-6.8-11l.2-.7c-4-5.5-7.2-11.6-10.6-17.5-1.4-1.9-2.6-4-3.5-6.1-3-4.8-6.2-9.4-8.5-14.5-2-2.6-3.7-5.4-5-8.4-6.5-10.5-13.1-21.2-19-32.1-2.5-3.6-5-7.4-6.5-11.5 27.8-.1 55.6.1 83.5-.1-.2-48.2-.3-96.3-.2-144.4z" class="st0"/></g></svg>