<svg xmlns="http://www.w3.org/2000/svg" xml:space="preserve" id="Layer_1" x="0" y="0" style="enable-background:new 0 0 200 200" viewBox="0 0 200 200"><style>.st0{fill:#23622c}</style><g id="_x23_00c553ff"><path d="M48.7 39.7C68.9 22 98.4 16.2 123.9 24.4c18.5 5.8 34.6 18.7 44.4 35.4 8.4 13.8 11.6 30.2 10.9 46.2 3.9.1 7.9-.2 11.8.1 3.6.4 5.1 5.1 3.1 7.9-5.4 8.6-11 17.1-16.4 25.6-1.6 3.2-6.7 3.5-8.6.5-5.8-8.9-11.6-17.7-17.4-26.7-1.9-2.7.1-6.8 3.3-7.3 4-.3 8-.1 12-.1.8-14.8-2.5-29.9-10.7-42.3-9.7-15.1-25.6-26-43.3-29.4-19.1-3.9-40 1.1-55.1 13.6-2 1.9-4.9 3.1-7.6 1.7-3.8-1.5-4.8-7.1-1.6-9.9z" class="st0"/><path d="M90.4 57.6c10.7-2.4 22.4-.6 31.8 5.1 10.8 6.4 18.6 17.7 20.5 30.1 1.9 11-.7 22.6-7.1 31.8-6.8 9.9-17.8 16.7-29.6 18.3-10.9 1.6-22.4-1.2-31.3-7.7-9.6-6.8-16.2-17.6-17.7-29.2-1.7-11.4 1.4-23.4 8.5-32.5 6.2-7.9 15.1-13.7 24.9-15.9m20.9 27.6c-6.2 5.9-12 12-18.1 18-2.6-2.4-4.9-5.3-7.8-7.5-3.8-2.7-9.4.7-9.2 5.2-.1 2.9 2.4 4.9 4.3 6.8 3.1 2.9 6 6 9.1 8.8 2.3 2.2 6.1 1.5 8.1-.8 7.1-7 14.1-14 21.2-21 1.8-1.6 2.9-4.2 2.1-6.6-1.2-4-6.7-5.8-9.7-2.9z" class="st0"/><path d="M22 61c1.1-2.1 3.5-3.7 6-3.1 2.1.4 3.2 2.3 4.3 3.9 5.3 8.3 10.9 16.5 16.2 24.8 1.9 2.8-.2 7-3.5 7.3-3.9.3-7.8 0-11.8.1-.8 15 2.6 30.3 11 42.8 10 15.3 26.6 26.2 44.7 29.2 19.2 3.4 39.6-2.2 54.4-14.8 2.6-2.5 7.2-1.7 9.1 1.3 1.9 2.6.9 6.4-1.5 8.2-14.6 12.3-33.8 18.9-52.9 18.4-14.6-.3-29.1-4.8-41.3-12.9-16.8-11-29.2-28.6-33.7-48.2-1.9-7.9-2.2-16-2.1-24.1-4-.1-8 .2-12-.1-3.5-.4-5.2-5-3.1-7.7C11.2 77.8 16.6 69.4 22 61z" class="st0"/></g></svg>