<svg xmlns="http://www.w3.org/2000/svg" xml:space="preserve" id="Layer_1" x="0" y="0" style="enable-background:new 0 0 307 307" viewBox="0 0 307 307"><style>.st0{fill:#23622c}</style><g id="_x23_000000ff"><path d="M112.9 44.4c26.5-10.4 56.9-10.4 83.4 0 28.2 10.9 51.6 33.5 63.7 61.2 8.1.1 16.2 2.2 23 6.6 11.6 7.2 19.3 20.2 19.9 33.8.4 8.4-.3 16.8 0 25.2.4 12.2-4.9 24.4-13.9 32.6-10 9.3-24.6 13-37.9 10.3-17.3 26.9-46.2 45.8-77.8 51-2.1 5.5-5.8 10.4-11 13.4-8.1 4.9-19.1 4.6-26.8-.9-8.4-5.6-12.6-16.6-10.1-26.4 2.4-10.5 12.3-18.7 23-19 10.1-.7 19.9 5.7 24.1 14.8 17-3.2 33.1-11 46.1-22.4 15.2-13.3 26-31.4 30.5-51 4.9-21.2 2.5-44-6.9-63.6-9.9-20.8-27.4-37.9-48.6-47.2-19.9-8.9-42.9-10.6-63.9-5-34.1 8.7-62 37.5-69.7 71.9-5.2 22-2.3 45.8 8 65.9 1.9 3.4 4 7.4 2.2 11.3-2.3 5.4-8.8 6.4-13.9 7.5-19.6 3.9-40.6-8.1-47.4-26.8-4.2-9.7-2.3-20.4-2.8-30.7-.3-8.5-.2-17.4 3.4-25.3 6.5-15.6 22.8-26.1 39.6-25.9 12.1-27.8 35.5-50.4 63.8-61.3M24.1 147.3c-.2 8.8.2 17.6.1 26.5.4 12.8 12 23.4 24.7 23.5-9.6-22.9-11.9-48.8-6-72.9-10.4 2.6-18.6 12.2-18.8 22.9m242.2-23c5.8 24.2 3.6 50.1-6.1 72.9 9.5-.3 18.8-6 22.6-14.8 3.3-6.9 1.7-14.6 2.1-21.9 0-7.6 1.2-15.7-2.3-22.7-3-6.7-9.3-11.5-16.3-13.5M146.6 250.9c-4.6 2-5.2 9.2-.9 11.9 4.2 3.2 10.9-.1 10.9-5.3.5-5.1-5.6-9.1-10-6.6z" class="st0"/><path d="M98.7 101.2c11.9-13.2 28.6-22 46.2-24.2 16.7-2.2 34.1 1.4 48.5 10.1 16.2 9.7 28.5 25.6 33.6 43.8 4.9 16.7 3.7 35.2-3.4 51.1-8.1 18.5-23.9 33.5-42.9 40.4-14.4 5.4-30.5 6-45.4 2.2-10.5 5.9-20.8 12.2-31.4 18-6.3 3.3-14.2-3.3-12.3-10.1 2.5-9.9 5.3-19.6 7.8-29.5-12.4-13.4-19.7-31.3-20.1-49.6-.6-19.1 6.5-38.2 19.4-52.2m18.8 6.7c-12.6 10.5-20.2 26.7-20.3 43.1-.3 15.4 6 30.8 17.1 41.5 2.4 2.2 4.6 5.2 4 8.7-.9 4.9-2.6 9.6-3.7 14.5 5.2-2.9 10.3-6.1 15.6-8.9 2.6-1.5 5.6-.8 8.3 0 14.6 4.3 30.8 2.5 44-5 12.2-6.7 21.7-18.1 26.2-31.2 5.7-16.1 3.6-34.6-5.4-49.1-8.9-14.5-24.5-24.5-41.4-26.6-15.8-2.3-32.4 2.7-44.4 13z" class="st0"/><path d="M121.5 143.2c6.2-2.7 13.5 3.5 12 10.1-.9 6.7-10.1 9.8-14.9 5-5-4.2-3.3-13 2.9-15.1zm29.9 0c6.2-2.7 13.5 3.5 11.9 10.1-.9 6.7-10.1 9.8-14.9 5-4.9-4.2-3.1-13.1 3-15.1zm30 0c6.2-2.6 13.5 3.5 12 10.1-.9 6.7-10.1 9.8-14.9 5-5-4.2-3.2-13.1 2.9-15.1z" class="st0"/></g></svg>