<svg xmlns="http://www.w3.org/2000/svg" xml:space="preserve" id="Layer_1" x="0" y="0" style="enable-background:new 0 0 431 431" viewBox="0 0 431 431"><style>.st0{fill:#23622c}</style><g id="_x23_404040ff"><path d="M123.8 67.7c2.8-3.2 7.3-2.2 11.1-2.3h166.9c2.3-.3 4.3 1.2 5.9 2.7 37.4 36.1 75 72.1 112.4 108.2 2 2 4.9 3.9 4.7 7.1 0 50.9.1 101.7-.1 152.6-.6 5.5-7.2 5.6-11.4 5.3 0 7.4.1 14.8 0 22.3.1 3.1-2.5 6.5-5.8 6.3-12 .1-23.9 0-35.9.1-2.1-.1-4.5.2-6.1-1.4-1.7-1.5-2.2-3.8-2.1-5.9v-21.3H67.7c0 7.4.1 14.9 0 22.3.1 3-2.2 6.3-5.4 6.2-12.9.1-25.7.1-38.6 0-3.3.2-6-3.1-5.9-6.3-.1-7.4 0-14.9 0-22.3-3.2-.2-7 .8-9.6-1.7-1.5-1.3-2.1-3.3-1.9-5.2V189.1c.1-2.6-.2-5.2.3-7.7 1.2-2.2 3.2-3.7 5-5.5 37.3-36.1 74.7-72.2 112.2-108.2m4.4 12.9C94.8 112.9 61.3 145 28 177.3c125 .1 250.1 0 375.1 0-34-32.9-68.1-65.6-102.1-98.5-1-1.1-2.5-1.2-3.8-1.1H133c-2.2-.2-3.4 1.8-4.8 2.9M18.5 189.8v8c19.9-.8 39.9.1 59.8-.3 7.8 0 15.7-.1 23.5.3 13.5-.4 27-.4 40.5 0 24.2-.8 48.5.2 72.7-.3 7.5.7 15.1-.6 22.6.3 7.2.2 14.5-.7 21.7-.1 8.2-.2 16.3-.5 24.5 0 17.3-.4 34.7-.3 52.1-.1 7.5-.6 15 .5 22.6 0 8.4-.6 16.9.5 25.4-.1 9.5.6 19-.1 28.6 0v-7.6c-131.5-.1-262.7 0-394-.1m0 20.4v110.4l103.8-96v-14.5c-34.6.1-69.2.1-103.8.1m116.6 0V221h139.6v-10.7c-46.6-.1-93.1-.1-139.6-.1m151.9 0v118.7c41.8-.1 83.6 0 125.3-.1V210.2H287m-156.2 23.6c-34.1 31.8-68.3 63.5-102.6 95.1h246.4V321H80.2c-3.2-.1-6.5.3-9.6-.4-3.2-.8-5.7-3.6-6.1-6.8-.6-3.8 1.2-7.5 3.9-10.1 4.9-4.9 9.8-9.7 14.7-14.6 3.4-3.5 8.6-4.2 13.2-4.3h178.4c0-2.8.1-5.5-.1-8.3-8.5-.4-17 0-25.5-.2H119.9c-3.3.1-6.9-1-8.9-3.8-2.7-3.4-1.9-8.4.7-11.6 3.1-3.8 6.5-7.3 9.8-10.9 4.8-5.5 11.8-9.4 19.2-9.9 14.2-.8 28.4.6 42.5-.2 30.5-.1 61.1 0 91.6-.1v-6.1c-48.1 0-96.1 0-144 .1m4.5 19.6c-5.1 2.2-8.2 7.2-12.1 11h151.3v-12.6c-43.7-.1-87.5 0-131.2-.1-2.7-.1-5.5.5-8 1.7m-46.2 45.5c-4.3 2.3-6.6 6.9-9.8 10.4 65.1 0 130.2.1 195.3 0 0-4.3.1-8.6-.3-12.8-16.3.3-32.6.1-48.9 0-8.8.7-17.5-.4-26.3.1-31.2-.3-62.3.1-93.5-.1-5.5 0-11.6-.6-16.5 2.4m-59 42.4v16.3c8.4.1 16.9 0 25.3 0v-16.4c-8.4.1-16.9 0-25.3.1m345.5 0v16.4c8.4 0 16.9.1 25.4 0v-16.3c-8.5-.1-16.9-.1-25.4-.1z" class="st0"/><path d="M142.8 82.3c12.9-5 28.6 4.5 30.1 18.2 1.8 10.5-4.8 21.6-14.9 25-9 3.4-20 .2-25.7-7.4-4.5-5.7-6-13.5-3.9-20.4 1.8-7.2 7.6-12.9 14.4-15.4m3.7 12c-3 1.1-5.2 3.9-6.2 6.8-2.1 6.5 3.8 13.8 10.5 13.1 6.7.1 11.7-7.5 9.3-13.7-1.6-5.5-8.3-8.4-13.6-6.2zm63.1-12.5c10.7-3.1 22.9 3 27 13.2 3.6 8.1 1.8 18.2-4.3 24.5-3.9 4.3-9.6 6.7-15.3 7.3-11.8.8-23.4-8.8-24.2-20.7-1.4-10.8 6.3-21.5 16.8-24.3m2 12.5c-3.9 1.5-6.7 5.7-6.5 9.9 0 5.9 6 10.9 11.8 10 6.3-.6 10.7-7.9 8.3-13.8-1.7-5.4-8.4-8.3-13.6-6.1zm64.8-12.8c10.8-2.4 22.7 4.2 26.2 14.7 3.2 8.4.6 18.5-6 24.5-4 3.7-9.3 5.8-14.6 6.2-8.5.3-17-4.4-21-12-5.1-8.9-3-21.1 4.7-27.9 3-2.7 6.7-4.6 10.7-5.5m2.8 12.2c-3.3.6-6.2 2.8-7.6 5.8-2.2 4.8-.4 11 4.3 13.5 6.3 3.9 15.6-1.2 15.4-8.8.6-6.3-5.9-11.8-12.1-10.5zm-170.6 36.1c13-3.4 27.3 7.2 27.8 20.6 1.4 12.5-9.6 24.7-22.2 24.4-11.3.8-21.9-8.4-23.2-19.5-1.9-11.4 6.2-23.4 17.6-25.5m1.1 12.6c-3.5 1.6-6.3 5.1-6.5 9-.4 4.6 2.7 9.2 7.2 10.4 5.5 2 12.4-1.6 13.4-7.6 2-7.6-6.9-15.3-14.1-11.8zm99.1-12.2c7-2.2 15-.7 20.7 3.8 6.1 4.6 9.6 12.5 8.7 20.2-.8 11.5-11.6 21.3-23.2 20.6-11.6.3-22.1-10-22.4-21.5-.7-10.2 6.4-20.4 16.2-23.1m2.8 12.2c-2.9 1.3-5.5 3.8-6.2 7.1-1.4 5.1 1.8 10.8 6.8 12.3 6.2 2.5 13.8-2.8 13.6-9.4.6-7.1-7.7-13.1-14.2-10zm101.6-12.7c11.7-2.8 24.4 5.4 26.9 17.1 3.7 13.3-7.4 28.2-21.2 28-12.2 1.1-23.6-9.4-23.9-21.5-.9-11 7.4-21.7 18.2-23.6m1.1 12.6c-3.8 1.4-6.7 5-6.7 9.1-.6 4.8 2.8 9.6 7.5 10.6 6.1 2 13.4-3.1 13.1-9.6.6-7.1-7.5-12.9-13.9-10.1zm29.5 73c12.2-2.7 25.5 3.5 31.4 14.4 5 8.8 5 20.3-.1 29-5.2 9.2-15.6 15.1-26.2 14.8-14.1-.2-27.1-11.8-28.3-25.9-2.2-14.8 8.7-29.6 23.2-32.3m.7 12.7c-5.7 1.9-10.2 7-11.5 12.9-1.2 4.9.7 10.1 3.7 14.1 5.9 7.5 18.6 7.9 25 .8 4.5-4.5 5.9-11.6 3.6-17.5-2.7-8.3-12.5-13.2-20.8-10.3zm-45.3 52.7c1.4-.5 3-.3 4.5-.4 31.4.1 62.9 0 94.4 0 3.6-.2 6.7 3.1 6.6 6.7.2 8.2 0 16.4.1 24.7.2 3-.7 6.4-3.6 7.9-1.9.6-4 .3-6 .4-31.4-.1-62.9 0-94.3 0-3.5.3-6.4-3.1-6.1-6.4v-26.4c-.3-3 1.6-5.8 4.4-6.5m7.9 12.3v14.7h85V293h-85z" class="st0"/></g></svg>